<?xml version="1.0" encoding="utf-8"?>
<!-- Generator: Adobe Illustrator 16.0.0, SVG Export Plug-In . SVG Version: 6.00 Build 0)  -->
<!DOCTYPE svg PUBLIC "-//W3C//DTD SVG 1.1 Tiny//EN" "http://www.w3.org/Graphics/SVG/1.1/DTD/svg11-tiny.dtd">
<svg version="1.1" baseProfile="tiny" id="图层_1"
	 xmlns="http://www.w3.org/2000/svg" xmlns:xlink="http://www.w3.org/1999/xlink" x="0px" y="0px" width="80px" height="80px"
	 viewBox="0 0 80 80" xml:space="preserve">
<g>
	<path fill-rule="evenodd" fill="#326AB4" d="M62.268,50.99c0.11,0,0.222,0,0.332,0c0,0.33,0,0.662,0,0.994
		c-1.211,0.234-2.531-0.15-3.644-0.496c-2.762-0.498-5.523-0.994-8.284-1.492c-0.139,1.486-2.016,3.135-3.147,3.645
		c-0.332,0.055-0.664,0.111-0.994,0.168c0,0.053,0,0.109,0,0.164c-0.11,0-0.221,0-0.331,0c0,0.057,0,0.109,0,0.166
		c-0.276,0-0.554,0-0.828,0c-0.371,0.109-1.753,0.492-2.32,0.33c0-0.057,0-0.109,0-0.166c-0.662-0.055-1.325-0.109-1.987-0.164
		c0-0.057,0-0.109,0-0.166c-0.111,0-0.222,0-0.332,0c0-0.055,0-0.111,0-0.164c-0.166,0-0.332,0-0.498,0c0-0.057,0-0.113,0-0.168
		c-0.332-0.109-0.663-0.221-0.994-0.33c0-0.057,0-0.109,0-0.166c-0.11,0-0.22,0-0.331,0c-0.11-0.168-0.221-0.332-0.332-0.498
		c-0.11,0-0.221,0-0.332,0c-0.055-0.109-0.11-0.221-0.165-0.33c-0.648-0.613-1.381-1.174-1.492-2.32
		c-1.322-0.018-2.61,0.34-3.644,0.664c-2.651,0.496-5.302,0.992-7.952,1.488c-0.265-0.709-0.174-2.006-0.166-2.98
		c0.111,0,0.221,0,0.332,0c-0.031-2.634,0.896-4.912,1.822-6.627c0.055-0.221,0.11-0.441,0.166-0.662
		c0.11-0.056,0.221-0.109,0.332-0.166c0.055-0.221,0.11-0.441,0.166-0.664c0.055,0,0.11,0,0.165,0
		c0.055-0.164,0.11-0.33,0.166-0.495c0.11-0.055,0.221-0.11,0.332-0.166c0-0.111,0-0.222,0-0.332
		c0.331-0.275,0.663-0.552,0.994-0.828c0-0.11,0-0.222,0-0.332c0.11-0.055,0.22-0.11,0.331-0.165c0-0.055,0-0.11,0-0.166
		c0.166-0.11,0.332-0.222,0.497-0.332c0-0.938,0-1.878,0-2.816c-0.29-0.32-0.218-1.55-0.165-2.154
		c0.149-1.72,0.212-3.994,0.663-5.467c0.166-1.05,0.332-2.1,0.497-3.148c0.497-1.491,0.994-2.983,1.491-4.474
		c0.056,0,0.111,0,0.166,0c0.055-0.22,0.11-0.441,0.166-0.663c0.055,0,0.11,0,0.166,0c0-0.166,0-0.331,0-0.496
		c0.055,0,0.11,0,0.166,0c0-0.111,0-0.222,0-0.332c0.056,0,0.111,0,0.166,0c0-0.11,0-0.22,0-0.331
		c0.11-0.055,0.221-0.111,0.332-0.167c0-0.166,0-0.331,0-0.496c0.11-0.055,0.221-0.112,0.332-0.167
		c0.11-0.331,0.221-0.663,0.331-0.994c0.11-0.055,0.221-0.11,0.332-0.166c0.055-0.222,0.11-0.442,0.165-0.663
		c0.111-0.055,0.221-0.11,0.332-0.167c0-0.11,0-0.221,0-0.331c0.056,0,0.111,0,0.166,0c0.055-0.166,0.11-0.332,0.166-0.498
		c0.111-0.055,0.221-0.11,0.331-0.166c0-0.11,0-0.22,0-0.332c0.166-0.11,0.332-0.221,0.498-0.331c0-0.11,0-0.22,0-0.332
		c0.276-0.22,0.552-0.441,0.828-0.663c0-0.11,0-0.22,0-0.331c0.111-0.055,0.221-0.11,0.331-0.166
		c0.366-0.387,0.829-0.752,0.994-1.325c0.111,0,0.221,0,0.332,0c0.442-0.498,0.884-0.995,1.325-1.491c0.111,0,0.221,0,0.332,0
		c0.111-0.167,0.221-0.332,0.332-0.498c0.11,0,0.221,0,0.331,0c0.11-0.165,0.221-0.332,0.331-0.497c0.11,0,0.222,0,0.331,0
		c0.705-0.476,0.985-1.097,2.154-1.16c0.159,0.249,0.74,0.68,0.994,0.829c0.11,0,0.221,0,0.332,0c0.054,0.11,0.11,0.221,0.164,0.331
		c0.167,0.055,0.332,0.11,0.497,0.165c0.11,0.167,0.221,0.332,0.332,0.498c0.11,0,0.221,0,0.332,0
		c0.221,0.275,0.441,0.552,0.662,0.828c0.109,0,0.22,0,0.332,0c0.165,0.222,0.33,0.442,0.496,0.663
		c0.441,0.387,0.884,0.773,1.325,1.16c0,0.11,0,0.22,0,0.331c0.332,0.277,0.664,0.552,0.994,0.829
		c2.197,3.05,3.925,6.396,5.302,10.271c0,0.22,0,0.442,0,0.663c0.055,0,0.11,0,0.165,0c0,0.22,0,0.442,0,0.663
		c0.056,0,0.111,0,0.166,0c0,0.221,0,0.442,0,0.663c0.056,0,0.11,0,0.166,0c0,0.221,0,0.442,0,0.663c0.054,0,0.11,0,0.166,0
		c0,0.276,0,0.553,0,0.828c0.055,0,0.109,0,0.165,0c0,0.277,0,0.553,0,0.828c0.055,0,0.11,0,0.167,0c0,0.332,0,0.663,0,0.995
		c0.054,0,0.109,0,0.164,0c0,0.498,0,0.995,0,1.491c0.056,0,0.111,0,0.166,0c0,0.607,0,1.215,0,1.823
		c0.502,1.779,0.01,4.472,0,6.295c0.497,0.442,0.995,0.884,1.491,1.325c0,0.11,0,0.222,0,0.332c0.165,0.11,0.332,0.221,0.497,0.331
		c0,0.11,0,0.222,0,0.332c0.165,0.11,0.332,0.221,0.496,0.331c0,0.11,0,0.221,0,0.33c0.111,0.057,0.222,0.111,0.332,0.168
		c0.111,0.33,0.222,0.66,0.332,0.992C61.604,44.852,62.241,47.162,62.268,50.99z"/>
	<path fill-rule="evenodd" fill="#FFFFFF" d="M28.141,48.67c1.05,0.008,1.871-0.252,2.651-0.496c2.43-0.441,4.86-0.883,7.29-1.326
		c0.131,1.436,1.186,2.197,1.988,2.984c0.11,0.164,0.221,0.33,0.332,0.494c0.11,0,0.22,0,0.332,0c0,0.057,0,0.113,0,0.168
		c0.22,0.055,0.441,0.109,0.663,0.166c0,0.053,0,0.109,0,0.164c0.331,0.057,0.662,0.109,0.994,0.166c0,0.055,0,0.111,0,0.166
		c1.104-0.055,2.208-0.111,3.313-0.166c0-0.057,0-0.109,0-0.166c0.33-0.111,0.662-0.221,0.994-0.33c0-0.055,0-0.111,0-0.168
		c0.11,0,0.221,0,0.331,0c0-0.053,0-0.109,0-0.164c0.39-0.316,0.61-0.67,1.159-0.828c0.238-0.963,1.023-1.178,1.159-2.32
		c0.948,0.006,1.768,0.273,2.485,0.498c0.828,0.109,1.656,0.221,2.484,0.33c0,0.057,0,0.111,0,0.168
		c1.657,0.273,3.314,0.551,4.971,0.828c0.037-2.744-0.71-4.876-1.656-6.628c-0.056-0.22-0.109-0.44-0.166-0.663
		c-0.11-0.055-0.221-0.111-0.331-0.164c-0.055-0.221-0.11-0.444-0.166-0.664c-0.164-0.11-0.331-0.22-0.496-0.331
		c0-0.111,0-0.222,0-0.332c-0.166-0.11-0.332-0.221-0.498-0.331c-0.275-0.332-0.552-0.663-0.828-0.995
		c-0.165-0.11-0.332-0.221-0.497-0.331c0-0.387,0-0.774,0-1.16c0.337-0.375,0.165-1.653,0.165-2.32c0-2.245,0.03-4.394-0.497-6.129
		c0-0.276,0-0.553,0-0.828c-0.054,0-0.11,0-0.164,0c0-0.276,0-0.553,0-0.828c-0.057,0-0.111,0-0.166,0
		c-0.056-0.442-0.11-0.884-0.166-1.325c-0.055,0-0.111,0-0.165,0c0-0.166,0-0.332,0-0.498c-0.057,0-0.11,0-0.167,0
		c0-0.22,0-0.442,0-0.663c-0.718-1.711-1.436-3.424-2.153-5.136c-0.11-0.055-0.221-0.11-0.331-0.166
		c-0.056-0.22-0.109-0.442-0.166-0.663c-0.11-0.055-0.221-0.11-0.331-0.165c-0.055-0.221-0.11-0.442-0.166-0.663
		c-0.055,0-0.11,0-0.164,0c-0.057-0.165-0.112-0.332-0.167-0.497c-0.11-0.055-0.221-0.11-0.331-0.166c0-0.11,0-0.22,0-0.332
		c-0.11-0.055-0.22-0.11-0.332-0.165c-0.055-0.166-0.11-0.331-0.165-0.498c-0.167-0.11-0.331-0.22-0.497-0.331
		c0-0.11,0-0.221,0-0.332c-0.388-0.331-0.773-0.663-1.159-0.994c0-0.11,0-0.22,0-0.332c-0.057,0-0.11,0-0.166,0
		c-0.11-0.166-0.221-0.331-0.331-0.496c-0.11,0-0.221,0-0.331,0c-0.276-0.332-0.554-0.663-0.829-0.995c-0.11,0-0.222,0-0.332,0
		c-0.164-0.221-0.331-0.441-0.496-0.663c-0.11,0-0.221,0-0.331,0c0-0.055,0-0.11,0-0.165c-0.111,0-0.222,0-0.331,0
		c-0.056-0.11-0.111-0.221-0.166-0.332c-0.11,0-0.221,0-0.332,0c0-0.055,0-0.11,0-0.166c-0.333,0.096-0.143-0.02-0.331,0.166
		c-0.368,0.102-0.417,0.137-0.663,0.332c0,0.055,0,0.11,0,0.165c-0.165,0.055-0.331,0.11-0.496,0.166
		c-0.056,0.111-0.111,0.222-0.166,0.332c-0.11,0-0.222,0-0.332,0c-0.22,0.275-0.441,0.552-0.662,0.828c-0.11,0-0.221,0-0.331,0
		c-0.111,0.165-0.221,0.332-0.332,0.497c-0.387,0.331-0.773,0.663-1.16,0.994c0,0.111,0,0.222,0,0.332
		c-0.276,0.22-0.552,0.442-0.829,0.663c0,0.11,0,0.22,0,0.331c-0.166,0.111-0.332,0.222-0.497,0.332
		c-0.055,0.166-0.11,0.331-0.166,0.498c-0.11,0.055-0.221,0.11-0.332,0.165c0,0.11,0,0.221,0,0.331
		c-0.11,0.055-0.22,0.111-0.331,0.167c-0.055,0.165-0.11,0.331-0.166,0.496c-0.055,0-0.11,0-0.166,0
		c-0.055,0.222-0.11,0.442-0.166,0.663c-0.11,0.055-0.221,0.111-0.331,0.167c-0.055,0.221-0.11,0.441-0.166,0.663
		c-0.11,0.055-0.221,0.11-0.332,0.166c0,0.166,0,0.331,0,0.497c-0.055,0-0.11,0-0.165,0c0,0.11,0,0.221,0,0.331
		c-0.055,0-0.11,0-0.166,0c-0.11,0.332-0.221,0.663-0.332,0.995c-0.055,0-0.11,0-0.166,0c-0.055,0.275-0.11,0.551-0.166,0.828
		c-0.055,0-0.11,0-0.165,0c0,0.11,0,0.22,0,0.331c-0.055,0-0.11,0-0.166,0c-0.441,1.547-0.883,3.093-1.325,4.639
		c-0.055,0.718-0.11,1.436-0.166,2.154c-0.66,2.301-0.273,6.076-0.166,8.615C30.332,39.779,28.191,44.471,28.141,48.67z"/>
	<path fill-rule="evenodd" fill="#326AB4" d="M42.885,21.998c0.829,0.055,1.657,0.11,2.486,0.166c2.058,0.711,4.841,3.43,3.81,6.627
		c-0.055,0.387-0.11,0.773-0.167,1.16c-0.054,0-0.109,0-0.164,0c-0.056,0.221-0.11,0.442-0.166,0.663
		c-0.11,0.055-0.221,0.11-0.331,0.165c0,0.11,0,0.222,0,0.332c-0.166,0.11-0.332,0.221-0.497,0.331c0,0.11,0,0.222,0,0.332
		c-0.165,0.055-0.331,0.11-0.497,0.166c-0.11,0.166-0.221,0.331-0.331,0.498c-0.11,0-0.221,0-0.331,0
		c-0.056,0.11-0.111,0.22-0.166,0.331c-0.166,0-0.331,0-0.498,0c0,0.055,0,0.11,0,0.166c-0.109,0-0.22,0-0.33,0
		c0,0.055,0,0.111,0,0.167c-0.442,0.055-0.884,0.11-1.325,0.165c0,0.055,0,0.11,0,0.166c-0.731,0.207-1.727-0.188-2.154-0.331
		c-0.221,0-0.441,0-0.663,0c0-0.055,0-0.112,0-0.167c-0.221-0.055-0.441-0.11-0.662-0.166c0-0.055,0-0.11,0-0.166
		c-0.111,0-0.221,0-0.332,0c-1.231-0.783-3.036-3.332-2.485-5.301c0.055-0.553,0.11-1.105,0.165-1.656c0.056,0,0.111,0,0.166,0
		c0.11-0.332,0.221-0.663,0.332-0.995c0.11-0.055,0.221-0.11,0.332-0.166c0-0.11,0-0.222,0-0.332
		c0.276-0.22,0.552-0.441,0.828-0.663c0.111-0.165,0.221-0.331,0.332-0.496c0.221-0.056,0.442-0.111,0.663-0.167
		c0.055-0.11,0.11-0.221,0.166-0.331c0.165,0,0.331,0,0.496,0c0-0.055,0-0.11,0-0.166C42.003,22.154,42.557,22.282,42.885,21.998z"
		/>
	<path fill-rule="evenodd" fill="#FFFFFF" d="M43.217,24.318c0,0.055,0,0.11,0,0.165c-0.221,0-0.442,0-0.663,0
		c0,0.055,0,0.11,0,0.166c-0.221,0.055-0.441,0.11-0.663,0.166c0,0.055,0,0.11,0,0.167c-0.109,0-0.221,0-0.331,0
		c0,0.055,0,0.11,0,0.165c-0.276,0.221-0.552,0.441-0.828,0.663c-0.192,0.277-0.002,0.376-0.332,0.663
		c-0.06,0.784-0.238,1.134,0,1.821c0,0.222,0,0.442,0,0.663c0.055,0,0.11,0,0.166,0c0.159,0.652,0.556,0.958,0.994,1.326
		c0,0.056,0,0.111,0,0.167c0.11,0,0.222,0,0.331,0c0,0.055,0,0.11,0,0.166c0.204,0.158,0.32,0.123,0.498,0.331
		c0.38,0.011,1.428,0.178,1.49,0.167c0-0.055,0-0.11,0-0.167c0.387-0.055,0.773-0.11,1.16-0.166c0-0.055,0-0.11,0-0.165
		c0.11,0,0.221,0,0.332,0c0.054-0.11,0.11-0.221,0.164-0.332c1.224-0.834,1.369-1.567,1.325-3.644
		c-0.275-0.442-0.551-0.883-0.828-1.326c-0.376-0.352-0.987-0.438-1.324-0.828C44.211,24.428,43.714,24.374,43.217,24.318z"/>
	<path fill-rule="evenodd" fill="#326AB4" d="M42.885,56.623c1.177-0.031,2.11,0.047,2.817,0.498c0.055,0.109,0.11,0.219,0.165,0.33
		c0.11,0,0.222,0,0.332,0c0.165,0.221,0.331,0.443,0.497,0.664c0.054,0,0.11,0,0.164,0c0,0.109,0,0.221,0,0.33
		c0.11,0.055,0.222,0.111,0.332,0.166c0,0.111,0,0.221,0,0.332c0.11,0.053,0.222,0.109,0.332,0.164c0,0.166,0,0.332,0,0.496
		c0.054,0,0.11,0,0.166,0c0,0.111,0,0.221,0,0.334c0.055,0,0.109,0,0.165,0c0.158,0.395,0.354,2.559,0.165,3.146
		c-0.055,0-0.11,0-0.165,0c0,0.223,0,0.443,0,0.662c-0.056,0-0.11,0-0.165,0c0,0.168,0,0.332,0,0.498c-0.056,0-0.112,0-0.166,0
		c0,0.164,0,0.33,0,0.498c-0.057,0-0.11,0-0.166,0c0,0.164,0,0.33,0,0.496c-0.056,0-0.11,0-0.166,0
		c-0.055,0.221-0.11,0.441-0.165,0.662c-0.057,0-0.11,0-0.167,0c0,0.166,0,0.33,0,0.498c-0.11,0.053-0.22,0.109-0.33,0.166
		c0,0.164,0,0.33,0,0.494c-0.11,0.057-0.221,0.113-0.331,0.168c0,0.109,0,0.221,0,0.33c-0.057,0-0.11,0-0.167,0
		c0,0.109,0,0.221,0,0.334c-0.055,0-0.109,0-0.165,0c-0.055,0.219-0.11,0.439-0.165,0.66c-0.11,0.057-0.221,0.111-0.331,0.168
		c0,0.109,0,0.219,0,0.33c-0.057,0-0.111,0-0.167,0c0,0.109,0,0.221,0,0.33c-0.165,0.111-0.331,0.221-0.496,0.332
		c-0.056,0.166-0.111,0.332-0.166,0.496c-0.056,0-0.11,0-0.165,0c0,0.111,0,0.221,0,0.334c-0.056,0-0.111,0-0.166,0
		c-0.056,0.164-0.11,0.33-0.166,0.494c-0.11,0.057-0.221,0.111-0.331,0.166c0,0.111,0,0.221,0,0.332c-0.056,0-0.111,0-0.166,0
		c0-0.055,0-0.111,0-0.164c-0.424-0.355-0.513-0.852-0.828-1.326c-0.11-0.057-0.221-0.109-0.331-0.166
		c-0.056-0.221-0.111-0.441-0.166-0.662c-0.11-0.057-0.222-0.113-0.332-0.166c0-0.111,0-0.221,0-0.33c-0.055,0-0.109,0-0.165,0
		c0-0.111,0-0.225,0-0.334c-0.056,0-0.11,0-0.166,0c0-0.111,0-0.221,0-0.33c-0.055,0-0.11,0-0.165,0c0-0.111,0-0.221,0-0.332
		c-0.056,0-0.111,0-0.166,0c-0.056-0.221-0.11-0.441-0.165-0.664c-0.111-0.053-0.222-0.109-0.332-0.164
		c-0.055-0.275-0.111-0.553-0.166-0.828c-0.055,0-0.11,0-0.166,0c0-0.109,0-0.221,0-0.332c-0.055,0-0.111,0-0.166,0
		c-0.055-0.221-0.11-0.441-0.166-0.662c-0.055,0-0.111,0-0.166,0c0-0.166,0-0.33,0-0.498c-0.055,0-0.11,0-0.165,0
		c-0.373-0.947-0.721-3.145-0.332-4.307c0.055,0,0.11,0,0.166,0c0-0.221,0-0.443,0-0.664c0.055,0,0.111,0,0.166,0
		c0.055-0.219,0.11-0.439,0.165-0.66c0.111-0.057,0.221-0.111,0.332-0.168c0-0.109,0-0.219,0-0.33
		c0.332-0.277,0.663-0.551,0.994-0.828c0.11-0.166,0.221-0.33,0.331-0.496c0.277-0.191,0.377-0.004,0.663-0.332
		c0.221,0,0.442,0,0.662,0C42.885,56.732,42.885,56.68,42.885,56.623z"/>
	<path fill-rule="evenodd" fill="#FFFFFF" d="M43.879,67.393c0.056-0.166,0.111-0.334,0.166-0.498c0.056,0,0.11,0,0.166,0
		c0-0.109,0-0.221,0-0.33c0.055,0,0.11,0,0.166,0c0.055-0.223,0.109-0.443,0.165-0.664c0.055,0,0.11,0,0.166,0
		c0-0.109,0-0.221,0-0.33c0.055,0,0.11,0,0.165,0c0.111-0.332,0.222-0.664,0.331-0.996c0.056,0,0.11,0,0.167,0
		c0.054-0.33,0.11-0.66,0.164-0.994c0.057,0,0.11,0,0.167,0c0-0.221,0-0.441,0-0.66c0.07-0.234,0.323-1.01,0.165-1.492
		c-0.055,0-0.11,0-0.165,0c0-0.164,0-0.332,0-0.498c-0.057,0-0.11,0-0.167,0c0-0.109,0-0.221,0-0.33c-0.054,0-0.11,0-0.164,0
		c-0.057-0.221-0.111-0.441-0.167-0.662c-0.184-0.262-1.325-0.883-1.987-0.664c0,0.057,0,0.111,0,0.166c-0.166,0-0.332,0-0.497,0
		c-0.166,0.221-0.331,0.441-0.497,0.662c-0.056,0-0.11,0-0.166,0c0,0.109,0,0.221,0,0.33c-0.056,0-0.11,0-0.166,0
		c-0.055,0.225-0.109,0.443-0.165,0.664c-0.056,0-0.11,0-0.166,0c-0.436,1.229,0.657,3.844,0.994,4.475c0.056,0,0.11,0,0.166,0
		c0,0.109,0,0.221,0,0.33c0.055,0,0.11,0,0.165,0c0.15,0.279,0.47,1.375,0.663,1.492C43.658,67.393,43.769,67.393,43.879,67.393z"/>
</g>
<g>
</g>
<g>
</g>
<g>
</g>
<g>
</g>
<g>
</g>
<g>
</g>
</svg>
