<?xml version="1.0" encoding="utf-8"?>
<!-- Generator: Adobe Illustrator 16.0.0, SVG Export Plug-In . SVG Version: 6.00 Build 0)  -->
<!DOCTYPE svg PUBLIC "-//W3C//DTD SVG 1.1 Tiny//EN" "http://www.w3.org/Graphics/SVG/1.1/DTD/svg11-tiny.dtd">
<svg version="1.1" baseProfile="tiny" id="图层_1"
	 xmlns="http://www.w3.org/2000/svg" xmlns:xlink="http://www.w3.org/1999/xlink" x="0px" y="0px" width="80px" height="80px"
	 viewBox="0 0 80 80" xml:space="preserve">
<circle fill="#3168B2" cx="39.462" cy="40" r="38.658"/>
<g>
	<path fill-rule="evenodd" fill="#FFFFFF" d="M65.872,14.26c-3.754,15.731-7.511,31.466-11.267,47.201
		c-7.851-2.449-15.706-4.895-23.557-7.342C38.39,45.355,45.73,36.592,53.07,27.832c-9.786,8.191-19.575,16.387-29.361,24.581
		c-6.57-2.334-13.145-4.666-19.715-7c0-0.027,0-0.057,0-0.084C24.618,34.972,45.246,24.615,65.872,14.26z"/>
	<path fill-rule="evenodd" fill="#FFFFFF" d="M31.391,59.412c2.332,0.852,4.666,1.705,6.999,2.561
		C36,65.613,33.61,69.254,31.22,72.896C31.277,68.4,31.334,63.906,31.391,59.412z"/>
</g>
<g>
</g>
<g>
</g>
<g>
</g>
<g>
</g>
<g>
</g>
<g>
</g>
</svg>
