<?xml version="1.0" encoding="utf-8"?>
<!-- Generator: Adobe Illustrator 16.0.0, SVG Export Plug-In . SVG Version: 6.00 Build 0)  -->
<!DOCTYPE svg PUBLIC "-//W3C//DTD SVG 1.1 Tiny//EN" "http://www.w3.org/Graphics/SVG/1.1/DTD/svg11-tiny.dtd">
<svg version="1.1" baseProfile="tiny" id="图层_1"
	 xmlns="http://www.w3.org/2000/svg" xmlns:xlink="http://www.w3.org/1999/xlink" x="0px" y="0px" width="80px" height="80px"
	 viewBox="0 0 80 80" xml:space="preserve">
<g>
	<path fill-rule="evenodd" fill="#306AB3" d="M76.192,5.704c-4.392,18.402-8.785,36.81-13.18,55.213
		c-9.184-2.861-18.373-5.724-27.557-8.585C44.043,42.08,52.63,31.828,61.217,21.58C49.769,31.163,38.318,40.75,26.87,50.334
		c-7.687-2.729-15.377-5.458-23.063-8.188c0-0.033,0-0.066,0-0.1C27.933,29.933,52.064,17.817,76.192,5.704z"/>
	<path fill-rule="evenodd" fill="#306AB3" d="M35.856,58.521c2.728,0.997,5.458,1.997,8.187,2.995
		c-2.795,4.26-5.591,8.521-8.387,12.779C35.723,69.038,35.79,63.779,35.856,58.521z"/>
</g>
<g>
</g>
<g>
</g>
<g>
</g>
<g>
</g>
<g>
</g>
<g>
</g>
</svg>
