<?xml version="1.0" encoding="utf-8"?>
<!-- Generator: Adobe Illustrator 16.0.0, SVG Export Plug-In . SVG Version: 6.00 Build 0)  -->
<!DOCTYPE svg PUBLIC "-//W3C//DTD SVG 1.1 Tiny//EN" "http://www.w3.org/Graphics/SVG/1.1/DTD/svg11-tiny.dtd">
<svg version="1.1" baseProfile="tiny" id="图层_1"
	 xmlns="http://www.w3.org/2000/svg" xmlns:xlink="http://www.w3.org/1999/xlink" x="0px" y="0px" width="80px" height="80px"
	 viewBox="0 0 80 80" xml:space="preserve">
<path fill="#306AB3" d="M43.15,56.91c0,1.658-1.344,3-3,3h-0.3c-1.657,0-3-1.342-3-3v-34c0-1.657,1.343-3,3-3h0.3
	c1.657,0,3,1.343,3,3V56.91z"/>
<path fill="#306AB3" d="M32.3,62.25c0,1.658-1.343,3-3,3H29c-1.657,0-3-1.342-3-3v-24c0-1.657,1.343-3,3-3h0.3c1.657,0,3,1.343,3,3
	V62.25z"/>
<path fill="#306AB3" d="M54.05,41.75c0,1.658-1.343,3-3,3h-0.3c-1.656,0-3-1.342-3-3v-24c0-1.657,1.344-3,3-3h0.3
	c1.657,0,3,1.343,3,3V41.75z"/>
<path fill="#306AB3" d="M21.45,53.751c0,1.657-1.343,3-3,3h-0.3c-1.657,0-3-1.343-3-3v-6c0-1.657,1.343-3,3-3h0.3
	c1.657,0,3,1.343,3,3V53.751z"/>
<path fill="#306AB3" d="M64.95,31.834c0,1.657-1.342,3-3,3h-0.299c-1.657,0-3-1.343-3-3v-6c0-1.657,1.343-3,3-3h0.299
	c1.658,0,3,1.343,3,3V31.834z"/>
<g>
</g>
<g>
</g>
<g>
</g>
<g>
</g>
<g>
</g>
<g>
</g>
</svg>
